<svg id="Layer_1" data-name="Layer 1" xmlns="http://www.w3.org/2000/svg" viewBox="0 0 128.75 30"><defs><style>.cls-1{fill:#1873ed;}.cls-2{fill:#0a1940;}.cls-3{fill:#02cdf5;}.cls-4{fill:#02d5fe;}</style></defs><path class="cls-1" d="M41.69,16.34c1.23-.43,5-2.13,5-2.13l-5.22-4-.58-.66.55-.33h0c1.24-.88,7.87-4.89,7.87-4.89l.75,1.85S43.3,9.36,41.94,10h0l.48-.64s5.21,4.55,5.32,4.62l-.33,1c-1.2.33-4.31,1.5-5.53,1.89"/><path class="cls-2" d="M1.89,15.54v8.29H7.06v1.75H0v-10Z"/><path class="cls-2" d="M15.29,22.05a3.53,3.53,0,0,1-3.69,3.69,3.52,3.52,0,0,1-3.67-3.69,3.54,3.54,0,0,1,3.66-3.68A3.57,3.57,0,0,1,15.29,22.05Zm-5.61,0a1.93,1.93,0,1,0,3.84,0A2,2,0,0,0,11.6,20,1.94,1.94,0,0,0,9.68,22.05Z"/><path class="cls-2" d="M22,17.79l1.29,1-.79,1a3,3,0,0,1,.75,2.1,2.81,2.81,0,0,1-1.49,2.64,2.37,2.37,0,0,1,1.46,2.33c0,2-1.49,3.16-3.54,3.16s-3.59-1.25-3.59-3.16h1.74a1.66,1.66,0,0,0,1.85,1.52c1,0,1.79-.54,1.79-1.52s-.92-1.42-1.79-1.42a3.3,3.3,0,0,1-3.59-3.55,3.45,3.45,0,0,1,3.59-3.59,2.82,2.82,0,0,1,1.62.4Zm-4.17,4.08a1.84,1.84,0,1,0,3.68,0,1.85,1.85,0,1,0-3.68,0Z"/><path class="cls-3" d="M26.64,16.52a1,1,0,0,1-2.07,0A1,1,0,0,1,26.64,16.52Z"/><rect class="cls-2" x="24.73" y="18.48" width="1.75" height="7.1"/><path class="cls-2" d="M32.67,20.39a2.39,2.39,0,0,0-1.75-.63c-.83,0-1.29.26-1.29.7s.42.72,1.32.78c1.34.08,3,.38,3,2.26,0,1.25-1,2.33-3,2.33a4.13,4.13,0,0,1-3.27-1.27l.86-1.24a3.84,3.84,0,0,0,2.44,1c.66,0,1.27-.32,1.27-.84s-.4-.69-1.4-.75c-1.34-.1-2.93-.59-2.93-2.19s1.69-2.21,3-2.21a3.79,3.79,0,0,1,2.76.93Z"/><path class="cls-2" d="M37.56,16.52v2h1.95V20h-2v3.06a.88.88,0,0,0,.92,1,2.12,2.12,0,0,0,.84-.21l.49,1.49a4,4,0,0,1-1.45.3,2.29,2.29,0,0,1-2.54-2.58V20H34.49V18.52h1.32V16.7Z"/><path class="cls-3" d="M42.72,16.52a1,1,0,0,1-2.06,0A1,1,0,0,1,42.72,16.52Z"/><rect class="cls-2" x="40.82" y="18.48" width="1.75" height="7.1"/><path class="cls-2" d="M50.21,24.68a3.66,3.66,0,0,1-2.73,1.12,3.51,3.51,0,0,1-3.75-3.75,3.5,3.5,0,0,1,3.75-3.74A3.38,3.38,0,0,1,50,19.36l-1.11,1.16A2.15,2.15,0,0,0,47.51,20a2,2,0,0,0-2,2.09,1.92,1.92,0,0,0,2,2.07A2.13,2.13,0,0,0,49,23.53Z"/><path class="cls-2" d="M55.6,20.39a2.39,2.39,0,0,0-1.75-.63c-.83,0-1.29.26-1.29.7s.42.72,1.32.78c1.33.08,3,.38,3,2.26,0,1.25-1,2.33-3,2.33a4.16,4.16,0,0,1-3.28-1.27l.87-1.24a3.84,3.84,0,0,0,2.43,1c.66,0,1.28-.32,1.28-.84s-.4-.69-1.4-.75c-1.34-.1-2.93-.59-2.93-2.19s1.69-2.21,3-2.21a3.79,3.79,0,0,1,2.76.93Z"/><path class="cls-2" d="M67.65,25.54H60.13v-10h7.52v1.84H62v2.31h5.44V21.4H62v2.27h5.64Z"/><path class="cls-2" d="M76.31,18.45l-3,7.11H71.4l-3-7.11h1.9l1,2.34,1.09,3,1.08-2.95,1-2.37Z"/><path class="cls-2" d="M78.64,22.62a1.89,1.89,0,0,0,2.11,1.51,2.9,2.9,0,0,0,1.9-.66l1.12,1.11a4.38,4.38,0,0,1-3,1.14A3.56,3.56,0,0,1,76.84,22a3.54,3.54,0,0,1,3.76-3.7c2.36,0,3.84,1.46,3.57,4.37Zm3.85-1.44a1.62,1.62,0,0,0-1.84-1.38,1.91,1.91,0,0,0-2,1.38Z"/><path class="cls-2" d="M90.72,25.54v-3.7A1.69,1.69,0,0,0,89,19.94a1.87,1.87,0,0,0-1.81,2v3.62H85.47V18.45H87l.12,1a3.18,3.18,0,0,1,2.32-1.06c1.67,0,3,1.25,3,3.47v3.72Z"/><path class="cls-2" d="M96.14,16.47v2h2V20h-2V23A.88.88,0,0,0,97,24a2,2,0,0,0,.85-.21l.49,1.49a3.88,3.88,0,0,1-1.45.3A2.28,2.28,0,0,1,94.39,23V20H93.07v-1.5h1.32V16.66Z"/><path class="cls-2" d="M108.7,25.55V21.49h-4.93v4.06h-1.9v-10h1.9v4.23h4.93V15.51h1.88v10Z"/><path class="cls-2" d="M113.72,18.46v3.7a1.69,1.69,0,0,0,1.71,1.9,1.86,1.86,0,0,0,1.81-2V18.46H119v7.09h-1.56l-.11-1a3.16,3.16,0,0,1-2.4,1.06c-1.69,0-2.93-1.28-2.93-3.47V18.46Z"/><path class="cls-2" d="M122.27,15.51v3.91a2.94,2.94,0,0,1,2.32-1.13,3.38,3.38,0,0,1,3.6,3.7,3.46,3.46,0,0,1-3.64,3.7,2.56,2.56,0,0,1-2.28-1.13l-.11,1h-1.64v-10Zm.12,6.48a2,2,0,1,0,4,0,2,2,0,0,0-2-2.06A2,2,0,0,0,122.39,22Z"/><rect class="cls-4" x="39.4" y="7.09" width="4.58" height="4.58" rx="2.29" transform="translate(3.77 29.08) rotate(-40.14)"/><rect class="cls-3" x="45.43" y="12.16" width="3.91" height="3.91" rx="1.96" transform="translate(5.55 -12.23) rotate(15.61)"/><rect class="cls-4" x="46.76" width="7.91" height="7.91" rx="3.95" transform="translate(19.85 44.39) rotate(-57.1)"/></svg>